<svg width="24" height="20" viewBox="0 0 24 20" fill="none" xmlns="http://www.w3.org/2000/svg">
<path d="M0 1.66667C0 0.744792 0.754102 0 1.6875 0H21.9375C22.8709 0 23.625 0.744792 23.625 1.66667C23.625 2.58854 22.8709 3.33333 21.9375 3.33333H1.6875C0.754102 3.33333 0 2.58854 0 1.66667ZM0 10.1667C0 9.24479 0.754102 8.5 1.6875 8.5H21.9375C22.8709 8.5 23.625 9.24479 23.625 10.1667C23.625 11.0885 22.8709 11.8333 21.9375 11.8333H1.6875C0.754102 11.8333 0 11.0885 0 10.1667ZM23.625 18.3333C23.625 19.2552 22.8709 20 21.9375 20H1.6875C0.754102 20 0 19.2552 0 18.3333C0 17.4115 0.754102 16.6667 1.6875 16.6667H21.9375C22.8709 16.6667 23.625 17.4115 23.625 18.3333Z" fill="white"/>
</svg>
